<svg xmlns="http://www.w3.org/2000/svg" width="284" height="99.972" viewBox="0 0 284 99.972"><defs><style>.a{fill:#ee2624;}.b{fill:#fff;}</style></defs><g transform="translate(-658 -230)"><path class="a" d="M753.595,238.076a7.992,7.992,0,0,1-1.382,4.488,8.176,8.176,0,0,1-3.68,2.975,8.29,8.29,0,0,1-8.935-1.754,8.01,8.01,0,0,1,1.25-12.427,8.3,8.3,0,0,1,10.353,1.008,8.015,8.015,0,0,1,2.4,5.71Z"/><path class="b" d="M847.857,276.2c3.067,0,6.422,0,6.422-3.959V251.355c0-6.063-.987-8.41-4.547-8.41h-1.875Zm18.785-5.084c0,7.785-7.049,15.827-15.035,15.827h-3.764v42.111h-13.59V232.084h17.354a15.026,15.026,0,0,1,10.423,4.05,14.583,14.583,0,0,1,4.612,10.061Z"/><path class="b" d="M890.721,288.041c-3.856,2.084-7.218,4.32-7.254,8.2v20.271a3.176,3.176,0,0,0,1.144,2.183,3.241,3.241,0,0,0,1.116.6,3.279,3.279,0,0,0,1.265.131,3.74,3.74,0,0,0,3.757-3.472v-27.91Zm12.814,40.973H891.468a11.69,11.69,0,0,1-.769-5.334h-.8c-2.9,4.618-5.23,6.292-10.164,6.292-6.013,0-8.938-3.139-8.938-9.028V294.826c0-15.208,19.525-7.916,19.525-27.3,0-2.577.613-8.563-3.024-8.563-3.94,0-3.56,4.958-3.673,8.375v11.049H870.871V263.194c0-8.243,6.252-13.055,16.29-13.055s16.374,5.048,16.374,13.09v65.785Z"/><path class="b" d="M922.123,314.562c0,3.66,1.564,4.861,3.432,4.861,2.03,0,3.7-.694,3.856-4.861V265.319c-.155-4.166-1.981-4.625-3.856-4.625-2.291,0-3.432,1.479-3.432,4.549v49.319ZM942,329H929.425v-4.688h-.839c-2.051,2.917-6.181,5.646-9.445,5.646-5.188,0-9.72-2.729-9.572-9.25V258.541c0-5.625,4.5-8.548,9.572-8.548,4.229,0,8.05,2.91,9.96,5.958h.324V231.826H942Z"/><path class="b" d="M697.586,231.708V243.9H684.827v84.834H670.9V243.9H658V231.708Z"/><path class="b" d="M713.128,255.645h.557c1.91-4.166,5.9-5.618,9.452-5.618,8.635,0,10.009,4.341,10.009,12.535v66.285H720.508V265.208c0-2.653-.627-4.6-3.524-4.6-3.193,0-3.75,2.416-3.75,4.479v63.764H700.645v-97.32h12.483Z"/><path class="b" d="M739.124,328.916v-77.9h12.547v77.9Z"/><path class="b" d="M757.45,251.1h12.505v4.59h.521a10.422,10.422,0,0,1,9.46-5.5c10.129,0,10.016,5.556,10.016,13.757v65.042H777.314V265.861c0-2.486-.43-5.09-3.334-5.09-3.884,0-4.053,2.9-4.053,5.09v63.125H757.45Z"/><path class="b" d="M795.894,329.014V231.792h12.6v55.229H809.7l7.232-35.882h12.624l-7.585,35.222,8,42.653H817.061L809.7,287.882H808.5v41.132Z"/></g></svg>